<svg width="80" height="80" viewBox="0 0 80 80" fill="none" xmlns="http://www.w3.org/2000/svg">
<path d="M40 0C17.9226 0 0 17.9226 0 40C0 62.0774 17.9226 80 40 80C62.0774 80 80 62.0774 80 40C80 17.9226 62.0774 0 40 0ZM40 73.2383C21.6701 73.2383 6.76171 58.3299 6.76171 40C6.76171 21.6701 21.6701 6.76171 40 6.76171C58.3299 6.76171 73.2383 21.6701 73.2383 40C73.2383 58.3299 58.3299 73.2383 40 73.2383Z" fill="white"/>
<path d="M33.0751 53.7678C33.5638 54.0122 34.0526 54.0937 34.5414 54.0937C35.1117 54.0937 35.7634 53.9307 36.2522 53.5234L52.7085 42.2811C53.5231 41.7108 54.0119 40.7332 54.0119 39.7556C54.0119 38.778 53.5231 37.8004 52.627 37.2301L36.1708 26.3136C35.1932 25.6619 34.0526 25.6619 32.9936 26.1507C32.016 26.721 31.3643 27.6986 31.3643 28.8391V50.998C31.4457 52.22 32.016 53.279 33.0751 53.7678Z" fill="white"/>
</svg>
